# This file uses centimeters as units for non-parametric coordinates.

v -0.170139 0.552409 0.822388
v -0.529795 0.079984 0.888076
v -0.005631 -0.340291 1.038267
v 0.307023 0.324849 0.927503
v 1.135347 -0.109418 0.666448
v 1.091653 0.450247 0.552477
v -0.159213 0.808785 0.468797
v -1.142306 0.478300 -0.091800
v -0.155620 0.955501 -0.193431
v 0.992294 0.647313 0.028870
v -0.794612 0.437165 -0.657476
v 1.303116 -0.145334 -0.092160
v 1.010598 -0.501027 0.554514
v -0.153163 -0.639317 0.739293
v 1.125807 -0.536612 0.044819
v -0.966026 -0.423960 0.361674
v -1.195716 -0.012808 -0.082028
v -0.930442 0.085075 -0.702345
v 0.130596 0.684254 -0.601485
v 0.848269 0.553931 -0.394442
v -0.086559 0.351864 -0.892067
v 1.055255 0.120508 -0.605795
v -0.135090 0.076328 -1.072154
v 0.912494 -0.474518 -0.600573
v 0.425571 -0.696356 -0.607947
v -0.049612 -0.655517 -0.820644
v 0.488167 -0.800803 -0.169746
v -0.327750 -0.628239 -0.774926
v -1.075455 -0.546843 -0.167554
v -0.764245 -0.663514 0.289361
v -0.300745 -0.874972 -0.039304
v 0.460778 -0.756607 0.234077
vt 0.556725 0.350141
vt 0.051020 0.874760
vt 0.216172 0.962473
vt 0.560576 0.238484
vt 0.521631 0.979263
vt 0.706338 0.137328
vt 0.640080 0.385325
vt 0.016228 0.574944
vt 0.798066 0.199051
vt 0.764348 0.435846
vt 0.823408 0.629196
vt 0.609493 0.789349
vt 0.229781 0.877060
vt 0.473598 0.908208
vt 0.520317 0.813130
vt 0.135462 0.739091
vt 0.096212 0.622725
vt 0.177243 0.525571
vt 0.881591 0.240443
vt 0.878303 0.408759
vt 0.362462 0.439903
vt 0.596448 0.616487
vt 0.345436 0.494205
vt 0.505878 0.686284
vt 0.343954 0.627363
vt 0.413454 0.680080
vt 0.403661 0.754120
vt 0.301830 0.618998
vt 0.172627 0.662465
vt 0.186215 0.748878
vt 0.275018 0.736207
vt 0.379976 0.821172
vt 0.978853 0.167338
vt 0.966201 0.484277
vt 0.871639 0.029876
vt 0.160173 0.458355
vt 0.653737 0.026444
vt 0.647566 0.644938
vt 0.432871 0.405676
vt 0.391191 0.216185
vn -0.247935 0.621131 0.743455
vn -0.566238 0.166278 0.807296
vn 0.000248 -0.271455 0.962451
vn 0.210184 0.383593 0.899266
vn 0.683758 -0.087358 0.724461
vn 0.610894 0.585735 0.532657
vn -0.162509 0.908789 0.384309
vn -0.762009 0.620731 0.184487
vn 0.550583 0.833543 0.045431
vn -0.092909 0.988835 -0.116503
vn -0.498056 0.727143 -0.472443
vn 0.988223 -0.007937 -0.152815
vn -0.122158 -0.742793 0.658283
vn 0.451999 -0.726693 0.517315
vn 0.722487 -0.689568 -0.050086
vn -0.773937 -0.255784 0.579307
vn -0.997061 -0.060903 0.046482
vn -0.686043 -0.089256 -0.722065
vn 0.494033 0.692258 -0.526032
vn 0.152178 0.755637 -0.637067
vn 0.089876 0.454699 -0.886099
vn 0.637034 0.232144 -0.735049
vn 0.032507 -0.032750 -0.998935
vn 0.547105 -0.393867 -0.738610
vn 0.000797 -0.631885 -0.775062
vn 0.263564 -0.735532 -0.624121
vn 0.252281 -0.963708 -0.087300
vn -0.406907 -0.641189 -0.650618
vn -0.699631 -0.633755 -0.329955
vn -0.441593 -0.878582 0.181907
vn -0.154844 -0.987381 0.033195
vn 0.164139 -0.958861 0.231612
s 1
f 1/1/1 2/39/2 3/40/3 4/4/4
f 3/40/3 5/37/5 6/6/6 4/4/4
f 6/6/6 7/7/7 1/1/1 4/4/4
f 7/7/7 8/38/8 2/39/2 1/1/1
f 10/9/9 9/10/10 7/7/7 6/6/6
f 9/10/10 11/11/11 8/38/8 7/7/7
f 12/35/12 10/9/9 6/6/6 5/37/5
f 14/13/13 13/14/14 5/5/5 3/3/3
f 13/14/14 15/15/15 12/12/12 5/5/5
f 16/16/16 14/13/13 3/3/3 2/2/2
f 17/17/17 16/16/16 2/2/2 8/8/8
f 18/18/18 17/17/17 8/8/8 11/36/11
f 20/19/19 19/20/20 9/10/10 10/9/9
f 19/20/20 21/34/21 11/11/11 9/10/10
f 22/33/22 20/19/19 10/9/9 12/35/12
f 19/20/20 20/19/19 22/33/22 21/34/21
f 23/23/23 18/18/18 11/36/11 21/21/21
f 24/24/24 23/23/23 21/21/21 22/22/22
f 15/15/15 24/24/24 22/22/22 12/12/12
f 26/25/25 23/23/23 24/24/24 25/26/26
f 15/15/15 27/27/27 25/26/26 24/24/24
f 28/28/28 18/18/18 23/23/23 26/25/25
f 28/28/28 29/29/29 17/17/17 18/18/18
f 29/29/29 30/30/30 16/16/16 17/17/17
f 30/30/30 31/31/31 14/13/13 16/16/16
f 13/14/14 32/32/32 27/27/27 15/15/15
f 31/31/31 32/32/32 13/14/14 14/13/13
f 27/27/27 32/32/32 31/31/31 25/26/26
f 31/31/31 28/28/28 26/25/25 25/26/26
f 30/30/30 29/29/29 28/28/28 31/31/31
