# This file uses centimeters as units for non-parametric coordinates.

v 6.595548 -2.336006 -0.163021
v 0.000000 -2.333012 -1.136374
v -6.595548 -2.330017 0.085057
v 6.595548 4.259240 -0.270572
v 0.000000 4.262235 -0.987837
v -6.595548 4.265230 0.233856
v 6.595548 12.253582 1.735361
v -0.000000 12.256578 0.222120
v -6.595548 12.259573 2.806474
vt 0.000000 0.000000
vt 0.500000 0.000000
vt 1.000000 0.000000
vt 0.000000 0.500000
vt 0.500000 0.500000
vt 1.000000 0.500000
vt 0.000000 1.000000
vt 0.500000 1.000000
vt 1.000000 1.000000
vn 0.127124 0.003082 -0.991882
vn -0.028418 0.012813 -0.999514
vn -0.044623 0.123783 -0.991306
vn 0.148195 0.110413 -0.982775
vn -0.182058 0.022159 -0.983038
vn -0.233674 0.136544 -0.962680
vn -0.059657 0.213528 -0.975114
vn 0.163626 0.194529 -0.967153
vn -0.270234 0.221658 -0.936932
s 1
f 1/1/1 2/2/2 5/5/3 4/4/4
f 2/2/2 3/3/5 6/6/6 5/5/3
f 4/4/4 5/5/3 8/8/7 7/7/8
f 5/5/3 6/6/6 9/9/9 8/8/7
